<svg width="67" height="100" viewBox="0 0 67 100" fill="none" xmlns="http://www.w3.org/2000/svg">
<mask id="mask0_219_3883" style="mask-type:luminance" maskUnits="userSpaceOnUse" x="0" y="0" width="67" height="100">
<path d="M0.0100098 99.86H66.1608V0.759984H0.0100098V99.86Z" fill="white"/>
</mask>
<g mask="url(#mask0_219_3883)">
<path fill-rule="evenodd" clip-rule="evenodd" d="M0.0100098 99.856H66.1569V0.758641H0.0100098V99.856Z" fill="#E9E600"/>
<path fill-rule="evenodd" clip-rule="evenodd" d="M3.01801 8.14495V72.7219C3.01801 75.1269 4.99301 77.1 7.39801 77.1H58.769C61.176 77.1 63.152 75.1269 63.152 72.7219V8.14495C63.152 5.73995 61.176 3.76497 58.769 3.76497H7.39801C4.99301 3.76497 3.01801 5.73995 3.01801 8.14495Z" fill="#24211D"/>
<path fill-rule="evenodd" clip-rule="evenodd" d="M7.39799 75.727H58.769C60.487 75.727 61.863 74.352 61.863 72.722V8.14496C61.863 6.42696 60.487 5.05497 58.769 5.05497H7.39799C5.67999 5.05497 4.30499 6.42696 4.30499 8.14496V72.722C4.30499 74.352 5.67999 75.727 7.39799 75.727Z" fill="#E9E600"/>
<path fill-rule="evenodd" clip-rule="evenodd" d="M42.191 94.2739V86.031H43.65V86.2049L43.821 86.1189L43.909 86.031L44.081 85.9439H44.252L44.424 85.8589H44.595L44.768 85.7729H45.024H45.111L45.282 85.8589H45.453H45.539H45.711L45.799 85.9439H45.97L46.057 86.031H46.142L46.228 86.1189L46.314 86.2049L46.4 86.2899L46.486 86.3759H46.571L46.657 86.5479L46.742 86.6339L46.829 86.5479V86.3759H46.915L47 86.2899L47.086 86.2049L47.171 86.1189L47.258 86.031H47.429L47.515 85.9439H47.6L47.689 85.8589H47.861H47.946H48.032L48.204 85.7729H48.289H48.462H48.547L48.633 85.8589H48.804H48.891H48.976L49.062 85.9439H49.234L49.319 86.031H49.405L49.491 86.1189L49.579 86.2049H49.664L49.751 86.2899L49.836 86.3759L49.922 86.4609L50.008 86.5479L50.093 86.6339L50.18 86.7189L50.265 86.8049V86.8909L50.351 86.977V87.062L50.436 87.1479V87.235L50.523 87.3199V87.4909V87.577L50.609 87.6629V87.835V87.9199V88.006V94.2739H49.147V88.1779V88.0919L49.062 87.9199V87.835V87.7489L48.976 87.6629V87.577L48.891 87.4909L48.804 87.406H48.718V87.3199L48.633 87.235H48.547H48.462L48.289 87.1479H48.204H48.118H48.032H47.946L47.861 87.235H47.775H47.689L47.6 87.3199L47.515 87.406H47.429L47.344 87.4909L47.258 87.577V87.6629L47.171 87.7489V87.835V87.9199V88.0919V88.1779V94.2739H45.625V88.1779V88.006V87.9199V87.835V87.7489L45.539 87.6629V87.577L45.453 87.4909L45.368 87.406V87.3199H45.282L45.196 87.235H45.111H45.024L44.939 87.1479H44.768H44.681H44.595H44.51L44.338 87.235H44.252H44.167L44.081 87.3199L43.995 87.406H43.909V87.4909L43.821 87.577L43.735 87.6629V87.7489V87.835L43.65 87.9199V88.006V88.1779V94.2739H42.191Z" fill="#24211D"/>
<path fill-rule="evenodd" clip-rule="evenodd" d="M16.247 92.8159V94.2739H22.003V92.8159H18.138L18.309 92.4729L18.48 92.129L18.652 91.7859L18.909 91.4409L19.081 91.0969L19.252 90.754L19.51 90.325L19.684 89.9819L19.855 89.6379L20.112 89.21L20.285 88.8649L20.541 88.4359L20.799 88.006L20.97 87.577L21.228 87.1479L21.488 86.7189L21.574 86.5479L21.659 86.3759V86.2049L21.745 86.031L21.831 85.7729V85.6009V85.4299V85.258V85.087V84.9149V84.7429V84.658L21.745 84.4859V84.314V84.229L21.659 84.058L21.574 83.9709V83.885L21.488 83.714L21.399 83.6279L21.314 83.5419L21.228 83.4569L21.142 83.283L21.057 83.1959L20.97 83.1109L20.885 83.025L20.799 82.9399H20.627L20.541 82.854L20.456 82.7669H20.285L20.198 82.6819H20.027L19.941 82.5959H19.769L19.595 82.5109H19.51H19.338H19.167H18.995H18.823H18.652H18.48H18.394L18.223 82.5959H18.051L17.88 82.6819H17.793L17.62 82.7669L17.534 82.854H17.363L17.276 82.9399L17.191 83.025L17.02 83.1109L16.934 83.1959L16.847 83.283L16.762 83.3709L16.676 83.5419L16.591 83.6279L16.504 83.714L16.418 83.885L16.333 83.9709V84.1429L16.247 84.229L16.161 84.4009V84.5719V84.658L16.075 84.829V85.0009V85.1719V85.3439V85.5159V85.6879H17.705V85.5159V85.3439V85.1719L17.793 85.087V84.9149V84.7429L17.88 84.658L17.965 84.5719L18.051 84.4009L18.138 84.314L18.223 84.229L18.309 84.1429H18.48L18.566 84.058H18.738H18.909L18.995 83.9709H19.167L19.252 84.058H19.423H19.51L19.684 84.1429H19.769L19.855 84.229L19.941 84.314L20.027 84.4009L20.112 84.4859L20.198 84.5719V84.658L20.285 84.829V84.9149V85.0009V85.1719V85.258V85.3439V85.4299V85.5159L20.198 85.6009V85.6879V85.8589L20.112 85.9439L16.247 92.8159Z" fill="#24211D"/>
<path fill-rule="evenodd" clip-rule="evenodd" d="M23.635 91.441V85.172L23.721 85.001V84.743L23.806 84.572V84.486L23.893 84.314V84.143L23.979 84.058L24.064 83.971L24.15 83.8L24.235 83.714L24.321 83.542L24.407 83.457L24.493 83.371L24.579 83.283L24.75 83.196L24.836 83.111L24.922 83.025L25.093 82.94L25.18 82.854L25.353 82.767H25.439L25.611 82.682H25.697L25.868 82.596H26.04H26.211L26.382 82.511H26.469H26.64H26.812H26.983L27.157 82.596H27.329H27.415L27.586 82.682H27.673L27.844 82.767H28.016L28.101 82.854L28.187 82.94L28.359 83.025L28.445 83.111L28.616 83.196L28.702 83.283L28.788 83.371L28.874 83.457L28.962 83.628L29.047 83.714L29.133 83.8L29.218 83.971L29.305 84.058V84.229L29.391 84.314L29.476 84.486V84.572L29.563 84.743V84.915V85.001V85.172V85.344L29.648 85.516V91.441L29.563 91.612V91.786V91.958V92.044V92.215L29.476 92.387V92.473L29.391 92.644L29.305 92.816V92.902L29.218 93.073L29.133 93.159L29.047 93.245L28.962 93.417L28.874 93.502L28.788 93.588L28.702 93.674L28.53 93.76L28.445 93.845L28.359 93.931L28.187 94.017L28.101 94.103L27.929 94.189H27.844L27.673 94.274H27.586L27.415 94.36H27.244H27.157L26.983 94.446H26.812H26.64H26.469H26.297L26.126 94.36H26.04H25.868L25.697 94.274H25.611L25.439 94.189H25.353L25.18 94.103L25.093 94.017L24.922 93.931L24.836 93.845L24.664 93.76L24.579 93.674L24.493 93.588L24.407 93.502L24.321 93.417L24.235 93.245L24.15 93.159L24.064 93.073L23.979 92.902L23.893 92.816V92.644L23.806 92.558V92.387L23.721 92.215V92.129V91.958L23.635 91.786V91.612V91.441Z" fill="#24211D"/>
<path fill-rule="evenodd" clip-rule="evenodd" d="M27.929 85.344V84.915L27.844 84.829V84.658L27.758 84.572L27.673 84.486L27.586 84.401L27.5 84.314L27.415 84.229L27.244 84.143H27.157L27.069 84.058H26.898H26.812H26.64H26.469H26.382H26.211L26.126 84.143H25.954L25.868 84.229L25.782 84.314L25.697 84.401L25.611 84.486L25.525 84.572L25.439 84.743V84.829L25.353 84.915V85.087V85.172L25.268 85.344V91.612L25.353 91.786V91.872V92.044L25.439 92.129V92.301L25.525 92.387L25.611 92.473L25.697 92.558L25.782 92.644L25.868 92.73L25.954 92.816H26.126L26.211 92.902H26.382H26.469L26.64 92.988L26.812 92.902H26.898H27.069L27.157 92.816H27.244L27.415 92.73L27.5 92.644L27.586 92.558L27.673 92.473L27.758 92.387L27.844 92.301V92.129L27.929 92.044V91.872V91.786V91.612V85.344Z" fill="#E9E600"/>
<path fill-rule="evenodd" clip-rule="evenodd" d="M31.28 91.441V84.915L31.367 84.743V84.572L31.452 84.486V84.314L31.538 84.143L31.623 84.058V83.971L31.71 83.8L31.795 83.714L31.881 83.542L31.967 83.457L32.139 83.371L32.224 83.283L32.31 83.196L32.396 83.111L32.568 83.025L32.653 82.94L32.827 82.854L32.913 82.767H33.085L33.17 82.682H33.341L33.514 82.596H33.599H33.771L33.942 82.511H34.114H34.286H34.457H34.543L34.717 82.596H34.888H35.06L35.146 82.682H35.318L35.489 82.767H35.575L35.746 82.854L35.833 82.94L35.918 83.025L36.089 83.111L36.175 83.196L36.262 83.283L36.435 83.371L36.521 83.457L36.607 83.628L36.693 83.714L36.779 83.8L36.864 83.971V84.058L36.95 84.229L37.036 84.314V84.486L37.122 84.572V84.743V84.915L37.208 85.001V85.172V85.344V85.516V91.441V91.612V91.786V91.958L37.122 92.044V92.215V92.387L37.036 92.473V92.644L36.95 92.816L36.864 92.902V93.073L36.779 93.159L36.693 93.245L36.607 93.417L36.521 93.502L36.347 93.588L36.262 93.674L36.175 93.76L36.089 93.845L35.918 93.931L35.833 94.017L35.661 94.103L35.575 94.189H35.404L35.318 94.274H35.146L35.06 94.36H34.888H34.717L34.543 94.446H34.371H34.286H34.114H33.942L33.771 94.36H33.599H33.514L33.341 94.274H33.17L33.085 94.189H32.913L32.827 94.103L32.653 94.017L32.568 93.931L32.396 93.845L32.31 93.76L32.224 93.674L32.052 93.588L31.967 93.502L31.881 93.417L31.795 93.245L31.71 93.159L31.623 93.073V92.902L31.538 92.816L31.452 92.644V92.558L31.367 92.387V92.215L31.28 92.129V91.958V91.786V91.612V91.441Z" fill="#24211D"/>
<path fill-rule="evenodd" clip-rule="evenodd" d="M35.575 85.344V85.087L35.489 84.915V84.829L35.404 84.658L35.318 84.572L35.232 84.486L35.146 84.401L35.06 84.314L34.975 84.229L34.888 84.143H34.803L34.632 84.058H34.543H34.371H34.2H34.114H33.942H33.857L33.686 84.143H33.599L33.514 84.229L33.341 84.314L33.256 84.401L33.17 84.486L33.085 84.572V84.743L32.999 84.829V84.915L32.913 85.087V85.172V85.344V91.612V91.786V91.872L32.999 92.044V92.129L33.085 92.301V92.387L33.17 92.473L33.256 92.558L33.341 92.644L33.514 92.73L33.599 92.816H33.686L33.857 92.902H33.942H34.114L34.2 92.988L34.371 92.902H34.543H34.632L34.803 92.816H34.888L34.975 92.73L35.06 92.644L35.232 92.558L35.318 92.473V92.387L35.404 92.301L35.489 92.129V92.044L35.575 91.872V91.786V91.612V85.344Z" fill="#E9E600"/>
<path fill-rule="evenodd" clip-rule="evenodd" d="M17.62 69.028V46.615L28.702 35.623V24.202L33.085 25.577L26.469 11.752L19.855 25.577L24.235 24.202V33.821L13.239 44.813V69.028H17.62Z" fill="#24211D"/>
<path fill-rule="evenodd" clip-rule="evenodd" d="M37.465 69.028V46.615L48.547 35.623V24.202L52.927 25.577L46.314 11.752L39.698 25.577L44.081 24.202V33.821L33.085 44.813V69.028H37.465Z" fill="#24211D"/>
</g>
</svg>
