<svg width="97" height="86" viewBox="0 0 97 86" fill="none" xmlns="http://www.w3.org/2000/svg">
<mask id="mask0_219_233" style="mask-type:luminance" maskUnits="userSpaceOnUse" x="0" y="0" width="97" height="86">
<path d="M0.109985 85.26H96.5612V0.307299H0.109985V85.26Z" fill="white"/>
</mask>
<g mask="url(#mask0_219_233)">
<path fill-rule="evenodd" clip-rule="evenodd" d="M90.653 85.2561H5.29999C2.43699 85.2561 0.109985 82.9311 0.109985 80.0701C0.109985 79.1771 0.288988 78.2841 0.824988 77.4771L43.503 3.6151C44.933 1.1121 48.067 0.307098 50.572 1.7391C51.377 2.1861 52.003 2.8111 52.45 3.6151L95.127 77.4771C96.557 79.9811 95.753 83.1121 93.247 84.5421C92.443 84.9881 91.639 85.2561 90.653 85.2561Z" fill="white"/>
<path d="M90.6536 85.2561H5.2996C2.43763 85.2561 0.11084 82.9309 0.11084 80.0699C0.11084 79.1772 0.288902 78.2835 0.825084 77.4767L43.5036 3.61464C44.9331 1.11148 48.0681 0.30675 50.572 1.73927C51.3773 2.18612 52.0035 2.81091 52.4506 3.61464L95.1281 77.4767C96.5576 79.9809 95.7534 83.1118 93.2475 84.5413C92.4432 84.9882 91.639 85.2561 90.6536 85.2561Z" stroke="#24211D" stroke-width="0.0893585" stroke-linejoin="round"/>
<path fill-rule="evenodd" clip-rule="evenodd" d="M90.653 83.5591H5.30004C3.33004 83.5591 1.81104 81.9491 1.81104 80.0701C1.81104 79.4451 1.98903 78.9091 2.25803 78.3731L45.023 4.42209C45.919 2.81109 48.067 2.27609 49.676 3.16909C50.213 3.52609 50.662 3.88609 51.019 4.42209L93.695 78.3731C94.591 79.9811 94.055 82.1271 92.443 83.0231C91.906 83.3801 91.37 83.5591 90.653 83.5591Z" fill="#EB3D00"/>
<path fill-rule="evenodd" clip-rule="evenodd" d="M17.198 73.1841L47.977 19.9791L78.755 73.1841H17.198Z" fill="white"/>
<path fill-rule="evenodd" clip-rule="evenodd" d="M41.5339 69.7881H72.7609L51.4659 32.8581L50.1229 37.1471V45.6441L45.8299 62.8131L41.5339 69.7881Z" fill="#24211D"/>
<path fill-rule="evenodd" clip-rule="evenodd" d="M47.977 37.147H43.682V41.3521H45.83L47.977 39.294V37.147Z" fill="#24211D"/>
<path fill-rule="evenodd" clip-rule="evenodd" d="M39.386 43.4971H41.5336V41.351H39.386V43.4971Z" fill="#24211D"/>
<path fill-rule="evenodd" clip-rule="evenodd" d="M39.386 45.644H41.534L43.682 49.937L39.386 54.2271L35.093 49.937L39.386 45.644Z" fill="#24211D"/>
<path fill-rule="evenodd" clip-rule="evenodd" d="M45.8299 54.227V58.52H43.6819L41.5339 56.373L45.8299 54.227Z" fill="#24211D"/>
<path fill-rule="evenodd" clip-rule="evenodd" d="M32.9449 54.227L37.2409 56.373V58.52H35.0929L32.9449 56.373V54.227Z" fill="#24211D"/>
<path fill-rule="evenodd" clip-rule="evenodd" d="M29.904 58.1631L35.0929 63.3481V67.6411L30.7979 69.7881L25.9659 64.8701L29.904 58.1631Z" fill="#24211D"/>
</g>
</svg>
