<svg width="98" height="86" viewBox="0 0 98 86" fill="none" xmlns="http://www.w3.org/2000/svg">
<mask id="mask0_219_481" style="mask-type:luminance" maskUnits="userSpaceOnUse" x="0" y="0" width="98" height="86">
<path d="M0.559998 85.4602H97.0616V0.506688H0.559998V85.4602Z" fill="white"/>
</mask>
<g mask="url(#mask0_219_481)">
<path fill-rule="evenodd" clip-rule="evenodd" d="M91.15 85.4609H5.752C2.888 85.4609 0.559998 83.1329 0.559998 80.2689C0.559998 79.3749 0.828 78.5669 1.275 77.7629L43.976 3.81792C45.406 1.31092 48.542 0.50594 51.048 1.93994C51.854 2.38694 52.39 3.01292 52.927 3.81792L95.627 77.7629C97.057 80.1789 96.163 83.3119 93.746 84.7449C92.852 85.2819 92.047 85.4609 91.15 85.4609Z" fill="white"/>
<path d="M91.1491 85.4609H5.75182C2.88768 85.4609 0.55957 83.1331 0.55957 80.2692C0.55957 79.3753 0.827586 78.5673 1.27461 77.7624L43.9747 3.81743C45.4058 1.31157 48.541 0.506614 51.0471 1.94054C51.8531 2.38751 52.3892 3.01348 52.9262 3.81743L95.6263 77.7624C97.0564 80.1793 96.1613 83.312 93.7452 84.745C92.8502 85.2819 92.0461 85.4609 91.1491 85.4609Z" stroke="#24211D" stroke-width="0.0894302" stroke-linejoin="round"/>
<path fill-rule="evenodd" clip-rule="evenodd" d="M91.15 83.761H5.75197C3.87097 83.761 2.26196 82.239 2.26196 80.269C2.26196 79.643 2.44096 79.196 2.70896 78.567L45.406 4.62598C46.393 3.01298 48.542 2.47597 50.152 3.36997C50.689 3.72897 51.048 4.08798 51.407 4.62598L94.104 78.567C95.09 80.269 94.462 82.328 92.852 83.312C92.315 83.58 91.776 83.761 91.15 83.761Z" fill="#EB3D00"/>
<path fill-rule="evenodd" clip-rule="evenodd" d="M17.657 73.4651L48.452 20.2001L79.156 73.4651H17.657Z" fill="white"/>
<path fill-rule="evenodd" clip-rule="evenodd" d="M44.333 52.428V38.463L48.452 33.807L52.569 38.463V52.428H61.341V56.547H52.569V69.436L48.452 64.7811L44.333 69.436V56.547H35.562V52.428H44.333Z" fill="#24211D"/>
</g>
</svg>
