<svg width="86" height="86" viewBox="0 0 86 86" fill="none" xmlns="http://www.w3.org/2000/svg">
<mask id="mask0_219_936" style="mask-type:luminance" maskUnits="userSpaceOnUse" x="0" y="0" width="86" height="86">
<path d="M0.160034 85.9602H85.1627V0.95711H0.160034V85.9602Z" fill="white"/>
</mask>
<g mask="url(#mask0_219_936)">
<path fill-rule="evenodd" clip-rule="evenodd" d="M85.163 43.421C85.163 20.017 66.175 0.956957 42.698 0.956957C19.221 0.956957 0.160034 20.017 0.160034 43.421C0.160034 66.899 19.221 85.96 42.698 85.96C66.175 85.96 85.163 66.899 85.163 43.421Z" fill="white"/>
<path d="M85.163 43.421C85.163 20.017 66.175 0.956957 42.698 0.956957C19.221 0.956957 0.160034 20.017 0.160034 43.421C0.160034 66.899 19.221 85.96 42.698 85.96C66.175 85.96 85.163 66.899 85.163 43.421Z" stroke="#24211D" stroke-width="0.073532" stroke-linejoin="round"/>
<path fill-rule="evenodd" clip-rule="evenodd" d="M83.7641 43.4211C83.7641 20.7531 65.3641 2.35605 42.6981 2.35605C19.9561 2.35605 1.55908 20.7531 1.55908 43.4211C1.55908 66.1611 19.9561 84.4871 42.6981 84.4871C65.3641 84.4871 83.7641 66.1611 83.7641 43.4211Z" fill="#EB3D00"/>
<path fill-rule="evenodd" clip-rule="evenodd" d="M75.228 43.4211C75.228 25.4631 60.654 10.8921 42.698 10.8921C24.667 10.8921 10.095 25.4631 10.095 43.4211C10.095 61.4511 24.667 76.0251 42.698 76.0251C60.654 76.0251 75.228 61.4511 75.228 43.4211Z" fill="white"/>
<path fill-rule="evenodd" clip-rule="evenodd" d="M45.348 51.8841L52.413 51.0011C54.253 56.2261 59.919 58.9491 65.144 57.1101C70.295 55.2701 73.02 49.6021 71.179 44.3771C69.339 39.1521 63.673 36.4291 58.446 38.2701C57.858 38.4901 57.343 38.7111 56.755 39.0791L52.707 32.9691L54.032 30.6881H58.226V28.9971L48.364 26.7881V28.5561L52.045 31.3521L45.127 43.4951C44.391 43.4211 43.727 43.4951 43.066 43.7891L31.511 33.4861L33.498 29.4381L29.598 27.0831L30.629 25.0221H36.295V23.6251H29.745L27.759 27.6711L31.585 29.9531L27.316 38.4901C22.238 36.3561 16.425 38.7851 14.291 43.9361C12.23 49.0131 14.659 54.8291 19.736 56.9631C24.887 59.0231 30.702 56.5941 32.764 51.5161C34.677 46.8791 32.984 41.6551 28.641 39.1521L29.524 37.4601L40.564 47.2471C40.49 48.2791 40.711 49.2341 41.299 50.1191L39.461 53.3561H37.03V54.7551H42.698V53.3561H41.079L42.33 51.1491C43.213 51.8101 44.245 52.0311 45.348 51.8841Z" fill="#24211D"/>
<path fill-rule="evenodd" clip-rule="evenodd" d="M25.698 28.556V34.957C27.463 34.957 28.862 33.56 28.862 31.793C28.862 30.026 27.463 28.556 25.698 28.556Z" fill="#24211D"/>
<path fill-rule="evenodd" clip-rule="evenodd" d="M23.7841 45.556L26.2131 40.772C22.3851 39.3 18.0451 41.213 16.5721 45.041C15.0991 48.867 17.0861 53.21 20.9141 54.682C24.7401 56.079 29.0091 54.165 30.4821 50.339C31.8051 47.026 30.5551 43.348 27.5381 41.434L25.1071 46.218C25.9191 47.1 25.8451 48.426 24.9611 49.234C24.1521 50.045 22.7531 49.971 22.0171 49.161C21.2091 48.279 21.2091 46.953 22.0911 46.144C22.5321 45.703 23.1221 45.482 23.7841 45.556Z" fill="white"/>
<path fill-rule="evenodd" clip-rule="evenodd" d="M52.413 44.377L46.6 43.6419L51.53 35.0309L55.061 40.3309C53.811 41.5079 52.927 42.76 52.413 44.377Z" fill="white"/>
<path fill-rule="evenodd" clip-rule="evenodd" d="M56.461 42.463L58.226 45.115L54.988 44.671C55.356 43.863 55.797 43.2 56.461 42.463Z" fill="white"/>
<path fill-rule="evenodd" clip-rule="evenodd" d="M62.054 49.8242L54.988 50.7071C56.682 54.4591 61.024 56.1521 64.776 54.5351C68.53 52.8421 70.295 48.4262 68.604 44.6712C66.91 40.9192 62.568 39.2261 58.816 40.9191C58.595 40.9931 58.373 41.0661 58.152 41.2131L61.024 45.4821L62.054 45.5561C63.23 45.7031 64.041 46.8051 63.894 47.9841C63.82 48.9401 63.01 49.6762 62.054 49.8242Z" fill="white"/>
</g>
</svg>
